<?xml version="1.0" encoding="UTF-8" standalone="no"?>
<svg
   data-name="Layer 1"
   width="804.36267"
   height="480.84824"
   viewBox="0 0 804.36265 480.84825"
   version="1.1"
   id="svg58"
   sodipodi:docname="register.svg"
   inkscape:version="1.1 (c68e22c387, 2021-05-23)"
   xmlns:inkscape="http://www.inkscape.org/namespaces/inkscape"
   xmlns:sodipodi="http://sodipodi.sourceforge.net/DTD/sodipodi-0.dtd"
   xmlns="http://www.w3.org/2000/svg"
   xmlns:svg="http://www.w3.org/2000/svg">
  <defs
     id="defs62" />
  <sodipodi:namedview
     id="namedview60"
     pagecolor="#ffffff"
     bordercolor="#666666"
     borderopacity="1.0"
     inkscape:pageshadow="2"
     inkscape:pageopacity="0.0"
     inkscape:pagecheckerboard="0"
     showgrid="false"
     inkscape:snap-bbox="true"
     inkscape:bbox-paths="true"
     inkscape:snap-bbox-edge-midpoints="true"
     inkscape:bbox-nodes="true"
     inkscape:snap-bbox-midpoints="true"
     inkscape:snap-intersection-paths="true"
     inkscape:object-paths="true"
     inkscape:snap-smooth-nodes="true"
     inkscape:snap-midpoints="true"
     inkscape:zoom="0.61615649"
     inkscape:cx="461.73335"
     inkscape:cy="364.35549"
     inkscape:window-width="1920"
     inkscape:window-height="1001"
     inkscape:window-x="-9"
     inkscape:window-y="-9"
     inkscape:window-maximized="1"
     inkscape:current-layer="svg58" />
  <g
     id="g907"
     transform="translate(155.456)">
    <path
       d="m 668.00659,317.36469 h -26.25586 v 223.84637 a 26.74408,26.74408 0 0 1 -26.74414,26.74408 H 414.26947 v 0.25592 a 26.744,26.744 0 0 0 26.74408,26.74408 h 226.993 a 26.74408,26.74408 0 0 0 26.74414,-26.74408 v -224.1023 a 26.74411,26.74411 0 0 0 -26.7441,-26.74407 z"
       transform="translate(-353.26944,-209.57589)"
       fill="#f2f2f2"
       id="path2-1" />
    <path
       d="m 792.47168,673.09116 a 2.26935,2.26935 0 0 0 1.64468,-3.93333 l -0.15549,-0.61819 q 0.0307,-0.0743 0.0618,-0.1484 a 6.09417,6.09417 0 0 1 11.24139,0.0418 c 1.83858,4.42817 4.17942,8.86389 4.75579,13.54594 a 18.02868,18.02868 0 0 1 -0.31648,6.20047 72.28149,72.28149 0 0 0 6.57515,-30.02077 69.76377,69.76377 0 0 0 -0.43275,-7.78294 q -0.35848,-3.17781 -0.9947,-6.31034 a 73.11887,73.11887 0 0 0 -14.50012,-30.98962 19.459,19.459 0 0 1 -8.09295,-8.39652 14.843,14.843 0 0 1 -1.34991,-4.05618 c 0.394,0.0517 1.48555,-5.94866 1.1884,-6.31679 0.54906,-0.83317 1.53178,-1.24733 2.13144,-2.06035 2.98232,-4.0434 7.0912,-3.33741 9.2362,2.15727 4.58224,2.31266 4.6266,6.14806 1.81495,9.83683 -1.78877,2.34681 -2.03455,5.52233 -3.60408,8.03478 0.16151,0.20671 0.32944,0.407 0.4909,0.61366 a 73.59114,73.59114 0 0 1 7.681,12.16859 30.59255,30.59255 0 0 1 1.82641,-14.20958 c 1.74819,-4.21732 5.02491,-7.76915 7.91045,-11.415 a 6.27922,6.27922 0 0 1 11.184,3.08333 q 0.009,0.0806 0.0173,0.1612 -0.6429,0.36267 -1.25864,0.76991 a 3.0782,3.0782 0 0 0 1.24107,5.60175 l 0.0628,0.01 a 30.627,30.627 0 0 1 -0.80735,4.57938 c 3.7018,14.31578 -4.29011,19.52989 -15.70147,19.76412 -0.25191,0.12916 -0.49738,0.25832 -0.74929,0.38109 a 75.114,75.114 0 0 1 4.04327,19.02779 71.24332,71.24332 0 0 1 -0.0517,11.50322 l 0.0194,-0.13562 a 18.82569,18.82569 0 0 1 6.4266,-10.87028 c 4.94561,-4.06263 11.93282,-5.55868 17.26826,-8.82425 a 3.533,3.533 0 0 1 5.41121,3.43708 l -0.0218,0.14261 a 20.67715,20.67715 0 0 0 -2.31871,1.11733 q -0.6429,0.36276 -1.25864,0.76992 a 3.07824,3.07824 0 0 0 1.24107,5.6018 l 0.0628,0.01 c 0.0452,0.006 0.084,0.0129 0.12912,0.0194 a 30.65449,30.65449 0 0 1 -5.63855,8.82923 c -2.31463,12.49712 -12.256,13.68282 -22.89022,10.04353 h -0.006 a 75.09259,75.09259 0 0 1 -5.0444,14.72621 h -18.02014 c -0.0646,-0.20022 -0.12274,-0.40693 -0.18089,-0.60717 a 20.47425,20.47425 0 0 0 4.98629,-0.297 c -1.337,-1.64058 -2.674,-3.29409 -4.011,-4.93462 a 1.12094,1.12094 0 0 1 -0.084,-0.0969 c -0.67817,-0.8396 -1.36282,-1.67283 -2.041,-2.51246 l -3.6e-4,-10e-4 a 29.99039,29.99039 0 0 1 0.87876,-7.63984 z"
       transform="translate(-353.26944,-209.57589)"
       fill="#f2f2f2"
       id="path4-2" />
    <path
       d="m 593.99391,286.91534 a 8.24621,8.24621 0 0 0 12.46576,1.5258 l 37.465,16.90274 7.22309,-9.2133 -44.64448,-19.75029 a 8.23465,8.23465 0 0 0 -12.50933,10.53505 z"
       transform="translate(-353.26944,-209.57589)"
       fill="#a0616a"
       id="path6-4" />
    <path
       d="m 754.77758,297.45515 3.71571,21.05629 a 7.15473,7.15473 0 0 1 -6.485,8.37606 l -63.13867,4.96514 -74.21673,-33.21554 8.86417,-16.82718 64.42694,20.40215 z"
       transform="translate(-353.26944,-209.57589)"
       fill="#dd2264"
       id="path8-2" />
    <rect
       y="72.788811"
       width="280.48126"
       height="277.59048"
       rx="26.744089"
       fill="#f2f2f2"
       id="rect10-8"
       x="0" />
    <path
       d="m 380.01369,287.86455 a 21.24413,21.24413 0 0 0 -21.24414,21.24414 v 224.10254 a 21.24414,21.24414 0 0 0 21.24414,21.24414 H 524.88615 A 103.36435,103.36435 0 0 0 628.2505,451.091 V 309.10869 a 21.24413,21.24413 0 0 0 -21.24414,-21.24414 z"
       transform="translate(-353.26944,-209.57589)"
       fill="#ffffff"
       id="path12-1" />
    <path
       d="M 556.96507,355.87588 H 429.5587 a 4.408025,4.408025 0 1 1 0,-8.81605 h 127.40637 a 4.408025,4.408025 0 0 1 0,8.81605 z"
       transform="translate(-353.26944,-209.57589)"
       fill="#f2f2f2"
       id="path14-8" />
    <path
       d="M 556.96507,449.87588 H 429.5587 a 4.408025,4.408025 0 1 1 0,-8.81605 h 127.40637 a 4.408025,4.408025 0 0 1 0,8.81605 z"
       transform="translate(-353.26944,-209.57589)"
       fill="#f2f2f2"
       id="path16-1" />
    <path
       d="M 608.70212,402.9067 H 377.82165 a 4.40803,4.40803 0 1 1 0,-8.81606 h 230.88047 a 4.40803,4.40803 0 0 1 0,8.81606 z"
       transform="translate(-353.26944,-209.57589)"
       fill="#f2f2f2"
       id="path18-5" />
    <polygon
       points="370.531,229.687 459.008,220.726 440.539,173.687 393.531,180.687 "
       fill="#a0616a"
       id="polygon20-7" />
    <polygon
       points="405.712,462.249 401.999,429.138 414.379,429.243 414.101,462.32 "
       fill="#a0616a"
       id="polygon22-9" />
    <path
       d="m 740.50017,685.235 a 3.75542,3.75542 0 0 0 3.71838,3.78333 l 16.67866,0.13917 2.91983,-5.91846 1.07238,5.94865 6.29322,0.0571 -1.58913,-21.21672 -2.18949,-0.14567 -8.93065,-0.61562 -2.88122,-0.19295 -0.0505,6.003 -13.398,9.08746 a 3.74908,3.74908 0 0 0 -1.64343,3.07074 z"
       transform="translate(-353.26944,-209.57589)"
       fill="#2f2e41"
       id="path24-9" />
    <polygon
       points="313.268,459.825 319.447,427.085 331.251,430.822 321.266,462.358 "
       fill="#a0616a"
       id="polygon26-5" />
    <path
       d="m 644.93215,676.78946 a 3.75542,3.75542 0 0 0 2.44267,4.70886 l 15.90163,5.03342 4.52988,-4.79935 -0.72274,6.00117 5.99868,1.90358 4.71473,-20.74714 -2.05006,-0.78254 -8.3556,-3.21239 -2.69736,-1.031 -1.81209,5.72322 -15.47666,4.74987 a 3.749,3.749 0 0 0 -2.47308,2.4523 z"
       transform="translate(-353.26944,-209.57589)"
       fill="#2f2e41"
       id="path28-2" />
    <path
       d="m 808.2479,416.5223 -80.4471,14.7407 c 0,0 -12.9034,9.652 -9.4517,13.10867 3.4517,3.45667 3.98713,2.92126 1.71941,5.189 -2.26772,2.26774 -7.17111,5.29922 -7.21941,7.28347 -0.0483,1.98425 -36.0483,90.98425 -36.0483,90.98425 0,0 4,-2 1,1 -3,3 -3,5.47886 -3,5.47886 l -14,94.52114 22.73653,1.33858 22.26347,-86.17322 49.65929,-80.50394 c 0,0 4.92732,71.789 5.134,76.56377 0.20668,4.77477 3.2067,-1.22519 0.2067,4.77481 -3,6 -5,2 -3,6 2,4 -7.20473,85.43464 -7.20473,85.43464 h 20.753 L 815.859,487.47179 c 0,0 15.836,-48.25554 -7.6111,-70.94949 z"
       transform="translate(-353.26944,-209.57589)"
       fill="#2f2e41"
       id="path30-2" />
    <path
       d="m 784.549,281.5104 -32.22473,-3.34828 -8.34892,10.83925 -9.72623,5.18025 a 24.27484,24.27484 0 0 0 -12.8148,22.96237 l 11.36649,66.119 c 0,0 -9.601,21.61914 -3,27 6.601,5.38086 -5.10356,18.70715 9,12 14.10356,-6.70715 75,1 75,1 l -13,-37 9.71135,-36.35753 1.06884,-30.48533 A 25.826,25.826 0 0 0 793.24157,293.7933 l -1.3579,-0.41034 z"
       transform="translate(-353.26944,-209.57589)"
       fill="#dd2264"
       id="path32-7" />
    <path
       d="m 828.9135,256.80605 c 0.21108,9.083 -3.1834,17.878 -8.05987,25.603 -1.44889,-4.50973 -4.05363,-8.6142 -6.77013,-12.52687 a 38.995,38.995 0 0 1 -4.15,24.69556 5.22441,5.22441 0 0 1 -0.44425,0.28489 c -3.97483,2.391 -9.01417,3.35945 -13.31408,1.63254 8.88429,-9.57671 10.01493,-25.44386 2.56643,-36.18565 -2.10882,-3.048 -4.83612,-5.74375 -6.14228,-9.21246 -2.06227,-5.53451 -0.0799,-11.62816 1.17072,-17.39847 1.16938,-5.37042 1.37406,-11.76126 -2.22891,-15.6971 a 3.78634,3.78634 0 0 1 3.47012,-1.59773 c 2.22144,0.31379 3.83841,2.24465 4.86826,4.23332 1.02984,1.98861 1.70905,4.19267 3.14428,5.91034 2.65786,3.215 7.18412,3.97511 10.99852,5.66949 9.23769,4.11461 14.66975,14.48224 14.89119,24.58914 z"
       transform="translate(-353.26944,-209.57589)"
       fill="#2f2e41"
       id="path34-9" />
    <path
       d="m 590.92033,689.23411 a 1.18647,1.18647 0 0 0 1.19006,1.19 h 253.29 a 1.19,1.19 0 0 0 0,-2.38 h -253.29 a 1.18651,1.18651 0 0 0 -1.19006,1.19 z"
       transform="translate(-353.26944,-209.57589)"
       fill="#cccccc"
       id="path36-1" />
    <circle
       cx="477.6384"
       cy="248.7478"
       r="9"
       fill="#dd2264"
       id="circle38-0" />
    <path
       d="m 751.15566,251.61275 c 0.52788,-1.84758 -3.11058,9.44634 -1.35486,9.65024 7.99661,0.91738 18.97388,5.69318 24.54346,7.92119 0.25083,-0.0292 0.50167,-0.0583 0.74507,-0.0947 0.59753,-0.0655 1.18034,-0.1602 1.75572,-0.26939 12.96865,-2.45373 17.95575,-22.37513 17.95575,-22.55713 0,-0.89557 -2.14941,-25.493 -5.5354,-25.857 a 24.9574,24.9574 0 0 0 -2.67783,-0.14563 h -8.40233 a 39.04837,39.04837 0 0 0 -5.27448,-0.76451 h -0.0148 c -16.9153,-1.28877 -30.2528,9.02125 -29.0061,21.56663 0.007,0.0145 0.0222,0.0291 0.0295,0.0437 0.36151,0.5388 0.67871,1.04849 0.959,1.53631 0.27294,0.45871 0.50162,0.89556 0.70077,1.31059 1.5418,3.2037 -2.42134,7.23495 0.20657,7.98739 3.49512,1.00076 -9.19231,33.89354 4.64179,33.89354 -6.72919,1.9132 -0.72808,-29.12447 0.72814,-34.22125 z"
       transform="translate(-353.26944,-209.57589)"
       fill="#2f2e41"
       id="path40-4" />
    <circle
       cx="412.98633"
       cy="41.443439"
       r="19.893551"
       fill="#a0616a"
       id="circle42-1" />
    <path
       d="m 743.88989,242.14732 c 0.332,0.17474 0.65656,0.3349 0.98853,0.49511 0.34669,0.16745 0.69343,0.33494 1.04013,0.48782 6.66139,3.02168 12.08341,3.35658 15.37354,-0.98293 a 18.39213,18.39213 0 0 1 1.51226,-6.62584 10.64972,10.64972 0 0 0 1.75572,6.62584 h 6.62447 c 6.82366,4.52882 10.3277,5.00211 5.59172,19.87012 -1.3205,4.14295 -6.57092,28.25068 -4.50539,31.82573 0.59753,-0.0655 6.95455,-26.471 7.52993,-26.58018 12.96865,-2.45373 21.20866,-23.81966 20.15377,-25.0283 a 22.27543,22.27543 0 0 0 -2.309,-9.90958 22.79287,22.79287 0 0 0 -8.66051,-9.42175 40.16587,40.16587 0 0 0 -6.91956,-2.59936 c -0.059,-0.0146 -0.11067,-0.0292 -0.16966,-0.0437 -0.7303,-0.19661 -1.47538,-0.37864 -2.22046,-0.53155 a 40.842,40.842 0 0 0 -4.66223,-0.70625 c -0.11067,-0.007 -0.22129,-0.0146 -0.32458,-0.0146 a 3.51314,3.51314 0 0 0 -1.77782,0.48787 c -0.007,0 -0.007,0.007 -0.0148,0.007 a 3.34732,3.34732 0 0 0 -0.98853,0.881 3.38566,3.38566 0 0 0 -0.72292,2.10425 h -7.37693 q -0.40941,0 -0.81882,0.0218 a 19.77972,19.77972 0 0 0 -19.0694,18.596 c -0.0221,0.34948 -0.0295,0.69167 -0.0295,1.0412 z"
       transform="translate(-353.26944,-209.57589)"
       fill="#2f2e41"
       id="path44-4" />
    <circle
       cx="434.11664"
       cy="13.10599"
       r="13.10599"
       fill="#2f2e41"
       id="circle46-1" />
    <path
       d="m 831.00893,462.03478 a 8.24622,8.24622 0 0 0 -3.71676,-11.99621 l 0.0649,-41.10135 -11.36418,-2.813 0.27989,48.81727 a 8.23465,8.23465 0 0 0 14.73619,7.09333 z"
       transform="translate(-353.26944,-209.57589)"
       fill="#a0616a"
       id="path48-6" />
    <path
       d="m 774.73294,311.053 17.68425,-12.01836 a 7.15474,7.15474 0 0 1 10.298,2.48285 l 30.40367,55.55863 0.11616,81.31043 -18.98188,-1.18978 -7.79226,-67.12941 z"
       transform="translate(-353.26944,-209.57589)"
       fill="#dd2264"
       id="path50-8" />
    <path
       d="m 638.915,495.45346 h -189 a 15.5,15.5 0 0 0 0,31 h 189 a 15.5,15.5 0 1 0 0,-31 z"
       transform="translate(-353.26944,-209.57589)"
       fill="#ffffff"
       id="path52-0" />
    <path
       d="m 638.915,527.45346 h -189 a 16.5,16.5 0 0 1 0,-33 h 189 a 16.5,16.5 0 1 1 0,33 z m -189,-31 a 14.5,14.5 0 0 0 0,29 h 189 a 14.5,14.5 0 1 0 0,-29 z"
       transform="translate(-353.26944,-209.57589)"
       fill="#dd2264"
       id="path54-0" />
    <path
       d="m 650.05955,563.09621 h -83.40636 a 4.40803,4.40803 0 1 1 0,-8.81606 h 83.40636 a 4.40803,4.40803 0 0 1 0,8.81606 z"
       transform="translate(-353.26944,-209.57589)"
       fill="#dd2264"
       id="path56-7" />
  </g>
</svg>
